<svg width="512" height="512" viewBox="0 0 512 512" fill="none" xmlns="http://www.w3.org/2000/svg">
<path d="M47.0001 95.563C47.0001 89.2246 54.02 85.4035 59.3431 88.8445L138.167 139.799C140.447 141.272 141.824 143.802 141.824 146.517V365.483C141.824 368.197 140.447 370.727 138.167 372.201L59.3431 423.155C54.02 426.596 47.0001 422.775 47.0001 416.437V95.563Z" fill="#005D8F"/>
<path d="M94.412 80.7211C94.412 72.0954 103.241 66.2869 111.162 69.7013L199.403 107.736C203.803 109.633 206.653 113.965 206.653 118.756V393.244C206.653 398.035 203.803 402.367 199.403 404.264L111.162 442.299C103.241 445.713 94.412 439.904 94.412 431.279V80.7211Z" fill="#007EC3"/>
<path d="M465 95.563C465 89.2246 457.98 85.4035 452.657 88.8445L373.833 139.799C371.553 141.272 370.176 143.802 370.176 146.517V365.483C370.176 368.197 371.553 370.727 373.833 372.201L452.657 423.155C457.98 426.596 465 422.775 465 416.437V95.563Z" fill="#005D8F"/>
<path d="M417.588 80.7211C417.588 72.0954 408.759 66.2869 400.838 69.7013L312.597 107.736C308.197 109.633 305.347 113.965 305.347 118.756V393.244C305.347 398.035 308.197 402.367 312.597 404.264L400.838 442.299C408.759 445.713 417.588 439.904 417.588 431.279V80.7211Z" fill="#007EC4"/>
<g filter="url(#filter0_d_307_159)">
<rect x="142" y="28" width="228" height="456" rx="21" fill="#00A5FF"/>
</g>
<rect x="156" y="42" width="198" height="427" rx="13" fill="url(#paint0_linear_307_159)"/>
<path d="M243.723 248.805H254.562C262.896 248.805 269.895 247.372 275.559 244.508C281.288 241.643 285.617 237.9 288.547 233.277C291.477 228.59 292.941 223.512 292.941 218.043C292.941 212.053 291.704 206.585 289.23 201.637C286.822 196.624 283.046 192.62 277.902 189.625C272.759 186.63 266.151 185.133 258.078 185.133C251.242 185.133 245.057 186.5 239.523 189.234C233.99 191.969 229.562 195.875 226.242 200.953C222.987 206.031 221.359 212.086 221.359 219.117H216.086C216.086 210.979 217.974 203.98 221.75 198.121C225.591 192.262 230.702 187.77 237.082 184.645C243.462 181.454 250.461 179.859 258.078 179.859C266.216 179.859 273.28 181.422 279.27 184.547C285.324 187.607 289.979 192.034 293.234 197.828C296.555 203.557 298.215 210.426 298.215 218.434C298.215 223.316 297.173 227.906 295.09 232.203C293.072 236.435 290.142 240.178 286.301 243.434C282.525 246.624 277.967 249.13 272.629 250.953C267.355 252.776 261.464 253.688 254.953 253.688H243.723V248.805ZM243.723 254.273V249.488H254.953C262.115 249.488 268.527 250.302 274.191 251.93C279.921 253.492 284.803 255.836 288.84 258.961C292.876 262.086 295.969 265.96 298.117 270.582C300.266 275.139 301.34 280.38 301.34 286.305C301.34 292.62 300.298 298.251 298.215 303.199C296.132 308.082 293.169 312.216 289.328 315.602C285.552 318.987 281.06 321.559 275.852 323.316C270.708 325.074 265.077 325.953 258.957 325.953C253.618 325.953 248.247 325.139 242.844 323.512C237.44 321.884 232.492 319.378 228 315.992C223.508 312.607 219.895 308.31 217.16 303.102C214.426 297.828 213.059 291.611 213.059 284.449H218.332C218.332 291.48 220.09 297.73 223.605 303.199C227.186 308.603 232.036 312.867 238.156 315.992C244.341 319.117 251.275 320.68 258.957 320.68C266.835 320.68 273.54 319.312 279.074 316.578C284.608 313.844 288.807 309.938 291.672 304.859C294.602 299.781 296.066 293.727 296.066 286.695C296.066 278.948 294.276 272.698 290.695 267.945C287.18 263.193 282.297 259.742 276.047 257.594C269.797 255.38 262.635 254.273 254.562 254.273H243.723Z" fill="#005D8F"/>
<path d="M188 42C189.71 42 191.257 42.9626 191.935 44.4491L198.326 58.4544C199.584 61.212 202.472 63 205.666 63H305.334C308.528 63 311.416 61.212 312.674 58.4544L319.065 44.4491C319.743 42.9626 321.29 42 323 42L188 42Z" fill="#00A5FF"/>
<defs>
<filter id="filter0_d_307_159" x="128.3" y="14.3" width="255.4" height="483.4" filterUnits="userSpaceOnUse" color-interpolation-filters="sRGB">
<feFlood flood-opacity="0" result="BackgroundImageFix"/>
<feColorMatrix in="SourceAlpha" type="matrix" values="0 0 0 0 0 0 0 0 0 0 0 0 0 0 0 0 0 0 127 0" result="hardAlpha"/>
<feOffset/>
<feGaussianBlur stdDeviation="6.85"/>
<feComposite in2="hardAlpha" operator="out"/>
<feColorMatrix type="matrix" values="0 0 0 0 0 0 0 0 0 0 0 0 0 0 0 0 0 0 0.25 0"/>
<feBlend mode="normal" in2="BackgroundImageFix" result="effect1_dropShadow_307_159"/>
<feBlend mode="normal" in="SourceGraphic" in2="effect1_dropShadow_307_159" result="shape"/>
</filter>
<linearGradient id="paint0_linear_307_159" x1="156" y1="416.23" x2="359.581" y2="68.0986" gradientUnits="userSpaceOnUse">
<stop stop-color="#DFF4FF"/>
<stop offset="0.566109" stop-color="#ECF8FF"/>
<stop offset="0.576739" stop-color="white"/>
<stop offset="1" stop-color="white"/>
</linearGradient>
</defs>
</svg>
